# xmcd
#
# Track frame offsets:
#	150
#	37640
#	66704
#	97604
#	165293
#
# Disc length: 2792 seconds
#
# Revision: 1
# Processed by: cddbd v1.5.2PL0 Copyright (c) Steve Scherf et al.
# Submitted via: audiograbber 1.83.01
#
DISCID=2d0ae605
DTITLE=Grateful Dead - 80-09-29 Warfield Theatre, San Francisco CA
DYEAR=1900
DGENRE=
TTITLE0=Althea
TTITLE1=Lost Sailor
TTITLE2=Saint Of Circumstance
TTITLE3=Terrapin Station
TTITLE4=Drums
EXTD=
EXTT0=
EXTT1=
EXTT2=
EXTT3=
EXTT4=
PLAYORDER=
